# AST/ASF file generated using VICON BodyLanguage
# -----------------------------------------------
:version 1.10
:name VICON
:units
  mass 1.0
  length 0.45
  angle deg
:documentation
   .ast/.asf automatically generated from VICON data using
   VICON BodyBuilder and BodyLanguage model FoxedUp or BRILLIANT.MOD
:root
   order TX TY TZ RX RY RZ
   axis XYZ
   position 0 0 0  
   orientation 0 0 0 
:bonedata
  begin
     id 1 
     name lhipjoint
     direction 0.623415 -0.642378 0.445763 
     length 2.49859 
     axis 0 0 0  XYZ
  end
  begin
     id 2 
     name lfemur
     direction 0.34202 -0.939693 0  
     length 6.69689  
     axis 0 0 20  XYZ
    dof rx ry rz
    limits (-160.0 20.0)
           (-70.0 70.0)
           (-60.0 70.0)
  end
  begin
     id 3 
     name ltibia
     direction 0.34202 -0.939693 0   
     length 7.37574   
     axis 0 0 20   XYZ
    dof rx
    limits (-10.0 170.0)
  end
  begin
     id 4 
     name lfoot
     direction 0.084323 -0.231675 0.969132   
     length 2.09111   
     axis -90 7.62852e-016 20   XYZ
    dof rx rz
    limits (-45.0 90.0)
           (-70.0 20.0)
  end
  begin
     id 5 
     name ltoes
     direction 1.5357e-011 -4.21957e-011 1   
     length 1.04989   
     axis -90 7.62852e-016 20   XYZ
    dof rx
    limits (-90.0 20.0)
  end
  begin
     id 6 
     name rhipjoint
     direction -0.605402 -0.653903 0.45376   
     length 2.45455  
     axis 0 0 0  XYZ 
  end
  begin
     id 7 
     name rfemur
     direction -0.34202 -0.939693 0   
     length 6.64523   
     axis 0 0 -20   XYZ
    dof rx ry rz
    limits (-160.0 20.0)
           (-70.0 70.0)
           (-70.0 60.0)
  end
  begin
     id 8 
     name rtibia
     direction -0.34202 -0.939693 0   
     length 7.3339   
     axis 0 0 -20   XYZ
    dof rx
    limits (-10.0 170.0)
 end
 begin
     id 9 
     name rfoot
     direction -0.120854 -0.332043 0.93549   
     length 2.23135  
     axis -90 -7.62852e-016 -20   XYZ
    dof rx rz
    limits (-45.0 90.0)
           (-20.0 70.0)
  end
  begin
     id 10 
     name rtoes
     direction -1.53563e-011 -4.21914e-011 1   
     length 1.10614   
     axis -90 -7.62852e-016 -20   XYZ
    dof rx
    limits (-90.0 20.0)
  end
  begin
     id 11 
     name lowerback
     direction 0.0319682 0.998615 -0.0417941   
     length 2.02718   
     axis 0 0 0   XYZ
    dof rx ry rz
    limits (-20.0 45.0)
           (-30.0 30.0)
           (-30.0 30.0)
  end
  begin
     id 12 
     name upperback
     direction 7.63181e-005 0.995808 0.0914691   
     length 1.97539   
     axis 0 0 0   XYZ
    dof rx ry rz
    limits (-20.0 45.0)
           (-30.0 30.0)
           (-30.0 30.0)
  end
  begin
     id 13 
     name thorax
     direction -0.016423 0.993627 0.111514   
     length 2.00349   
     axis 0 0 0   XYZ
    dof rx ry rz
    limits (-20.0 45.0)
           (-30.0 30.0)
           (-30.0 30.0)
  end
  begin
     id 14 
     name lowerneck
     direction -0.174763 0.981668 -0.0760716   
     length 1.71436   
     axis 0 0 0   XYZ
    dof rx ry rz
    limits (-20.0 45.0)
           (-30.0 30.0)
           (-30.0 30.0)
  end
  begin
     id 15 
     name upperneck
     direction 0.345458 0.934587 -0.0848868   
     length 1.72805   
     axis 0 0 0   XYZ
    dof rx ry rz
    limits (-20.0 45.0)
           (-30.0 30.0)
           (-30.0 30.0)
  end
  begin
     id 16
     name head
     direction 0.13001 0.989848 -0.0574291  
     length 1.767  
     axis 0 0 0   XYZ
    dof rx ry rz
    limits (-20.0 45.0)
           (-30.0 30.0)
           (-30.0 30.0)
  end
  begin
     id 17 
     name lclavicle
     direction 0.952951 0.290122 0.0878234  
     length 3.54654  
     axis 0 0 0   XYZ
    dof ry rz
    limits (-20.0 10.0)
           (0.0 20.0)
  end
  begin
     id 18 
     name lhumerus
     direction 1 -4.48957e-011 -4.56525e-028   
     length 5.19807   
     axis 180 -30 -90   XYZ
    dof rx ry rz
    limits (-60.0 90.0)
           (-90.0 90.0)
           (-90.0 90.0)
  end
  begin
     id 19
     name lradius
     direction 1 -4.48979e-011 -2.0317e-027   
     length 3.0937   
     axis 180 -30 -90   XYZ
    dof rx
    limits (-10.0 170.0)
  end
  begin
     id 20
     name lwrist
     direction 1 -4.48953e-011 -3.05809e-027   
     length 1.54685   
     axis 8.48514e-016 90 90   XYZ
    dof ry
    limits (-180.0 0.0)
 end
  begin
     id 21 
     name lhand
     direction 1 -4.48952e-011 -6.11639e-027   
     length 0.672632   
     axis 3.9013e-015 90 90   XYZ
    dof rx rz
    limits (-90.0 90.0)
           (-45.0 45.0)
  end
  begin
     id 22 
     name lfingers
     direction 1 -4.48925e-011 -1.22426e-026   
     length 0.542293   
     axis 7.80276e-015 90 90   XYZ
    dof rx
    limits (0.0 90.0)
  end
  begin
     id 23
     name lthumb
     direction 0.707107 -6.3486e-011 0.707107   
     length 0.778628   
     axis -90 45 5.37419e-014   XYZ
    dof rx rz
    limits (-45.0 45.0)
           (-45.0 45.0)
  end
  begin
     id 24 
     name rclavicle
     direction -0.960732 0.273675 -0.0457849   
     length 3.52079  
     axis 0 0 0   XYZ 
    dof ry rz
    limits (-10.0 20.0)
           (-20.0 0.0)
  end
  begin
     id 25 
     name rhumerus
     direction -1 -4.48976e-011 -1.63613e-027  
     length 5.45222   
     axis 180 30 90   XYZ
    dof rx ry rz
    limits (-90.0 60.0)
           (-90.0 90.0)
           (-90.0 90.0)
  end
  begin
     id 26 
     name rradius
     direction -1 -4.48957e-011 -7.00033e-028   
     length 3.01284   
     axis 180 30 90   XYZ
    dof rx
    limits (-10.0 170.0)
  end
  begin
     id 27 
     name rwrist
     direction -1 -4.48983e-011 -3.05543e-027   
     length 1.50642   
     axis 8.48514e-016 -90 -90   XYZ
    dof ry
    limits (-180.0 0.0)
  end
  begin
     id 28
     name rhand
     direction -1 -4.48984e-011 -6.11072e-027   
     length 0.622296   
     axis 3.9013e-015 -90 -90   XYZ
    dof rx rz
    limits (-90.0 90.0)
           (-45.0 45.0)
  end
  begin
     id 29
     name rfingers
     direction -1 -4.48865e-011 -1.22637e-026   
     length 0.501711   
     axis 7.80276e-015 -90 -90   XYZ
    dof rx
    limits (0.0 90.0)
  end
  begin
     id 30
     name rthumb
     direction -0.707107 -6.34932e-011 0.707107   
     length 0.72036   
     axis -90 -45 -5.37419e-014   XYZ
    dof rx rz
    limits (-45.0 45.0)
           (-45.0 45.0)
  end
:hierarchy
  begin
    root lhipjoint rhipjoint lowerback
    lhipjoint lfemur
    lfemur ltibia
    ltibia lfoot
    lfoot ltoes
    rhipjoint rfemur
    rfemur rtibia
    rtibia rfoot
    rfoot rtoes
    lowerback upperback
    upperback thorax
    thorax lowerneck lclavicle rclavicle
    lowerneck upperneck
    upperneck head
    lclavicle lhumerus
    lhumerus lradius
    lradius lwrist
    lwrist lhand lthumb
    lhand lfingers
    rclavicle rhumerus
    rhumerus rradius
    rradius rwrist
    rwrist rhand rthumb
    rhand rfingers
  end

#!OML:ASF H:\Not Pregnant\Project 1\Capture day 1\Session 1\non-pregnant.ASF
:FULLY-SPECIFIED
:DEGREES
348
root 11.7956 14.3283 26.0191 -333.727 -69.4422 -368.836
lowerback 5.51817 -2.29541 6.55167
upperback -7.71097 -2.31967 2.27405
thorax -11.6095 -1.62221 -0.821565
lowerneck 11.4738 -9.0373 -30.1249
upperneck -15.9378 -14.8845 44.6228
head 0.77086 -9.83353 23.8397
rclavicle -4.49005e-014 3.18055e-015
rhumerus -38.3835 -3.52968 -83.1533
rradius 42.0918
rwrist -3.73222
rhand -19.0215 -23.9372
rfingers 7.12502
rthumb 7.28445 -53.7918
lclavicle -4.49005e-014 3.18055e-015
lhumerus -50.6879 9.0877 80.5819
lradius 52.6528
lwrist 45.9385
lhand -28.7107 -28.3662
lfingers 7.12502
lthumb -2.07228 1.6035
rfemur -11.9303 12.9758 6.83672
rtibia 33.6893
rfoot -36.6901 -9.65418
rtoes -36.8834
lfemur -39.5279 5.91823 4.73673
ltibia 43.5418
lfoot -24.1084 -3.27081
ltoes -46.4173
349
root 11.7961 14.3795 26.2221 -334.825 -69.8362 -367.235
lowerback 5.12148 -2.40749 6.48235
upperback -7.93947 -2.52288 2.1849
thorax -11.6434 -1.72934 -0.853766
lowerneck 11.5292 -9.04809 -30.3269
upperneck -16.1099 -14.934 44.6518
head 0.767747 -9.86373 23.9239
rclavicle -1.80894e-014 2.34566e-014
rhumerus -39.7803 -2.29025 -84.1504
rradius 45.701
rwrist -9.15378
rhand -18.8998 -23.3514
rfingers 7.12502
rthumb 7.40187 -53.2019
lclavicle -1.80894e-014 2.34566e-014
lhumerus -49.989 7.29837 83.0733
lradius 52.4946
lwrist 45.3711
lhand -27.8201 -28.1122
lfingers 7.12502
lthumb -1.21218 1.8641
rfemur -11.4041 13.4897 5.51346
rtibia 32.2835
rfoot -35.1899 -10.2577
rtoes -36.4984
lfemur -39.8729 6.22857 3.10246
ltibia 43.7771
lfoot -24.404 -3.65769
ltoes -46.7379
350
root 11.7942 14.4371 26.4228 -336.017 -70.3967 -365.514
lowerback 4.70219 -2.41789 6.33343
upperback -8.1966 -2.60208 2.05663
thorax -11.6838 -1.77362 -0.904905
lowerneck 11.713 -9.05279 -30.5489
upperneck -16.3338 -14.9938 44.6519
head 0.726074 -9.90425 24.0102
rclavicle 2.5345e-014 7.95139e-015
rhumerus -41.3293 -1.08914 -85.1348
rradius 49.3862
rwrist -14.4563
rhand -19.0931 -22.9041
rfingers 7.12502
rthumb 7.21533 -52.7611
lclavicle 2.5345e-014 7.95139e-015
lhumerus -49.3386 5.16045 85.6752
lradius 52.2921
lwrist 42.7623
lhand -27.4134 -27.7878
lfingers 7.12502
lthumb -0.819399 2.19035
rfemur -11.099 13.9452 4.12937
rtibia 31.1469
rfoot -33.5495 -10.728
rtoes -35.9401
lfemur -40.0126 6.62321 1.3808
ltibia 43.7667
lfoot -24.657 -3.93526
ltoes -46.9161
351
root 11.7915 14.5007 26.6197 -337.322 -71.1437 -363.658
lowerback 4.29172 -2.32941 6.08169
upperback -8.48283 -2.55935 1.89677
thorax -11.7488 -1.75355 -0.950785
lowerneck 11.9781 -9.05995 -30.77
upperneck -16.5641 -15.0702 44.6096
head 0.66527 -9.95245 24.0683
rclavicle 1.05853e-014 -1.31198e-014
rhumerus -42.979 0.0636944 -86.1121
rradius 53.0502
rwrist -19.2543
rhand -19.5848 -22.6275
rfingers 7.12502
rthumb 6.74065 -52.5002
lclavicle 1.05853e-014 -1.31198e-014
lhumerus -48.7892 2.82516 88.2498
lradius 52.1784
lwrist 38.8922
lhand -27.2474 -27.5166
lfingers 7.12502
lthumb -0.659023 2.46214
rfemur -11.1004 14.3358 2.69739
rtibia 30.3978
rfoot -31.7771 -11.1154
rtoes -35.2413
lfemur -39.9738 7.1422 -0.418246
ltibia 43.5358
lfoot -24.8302 -4.17629
ltoes -46.9123
352
root 11.789 14.5692 26.8121 -338.722 -72.0927 -361.716
lowerback 3.92818 -2.15043 5.7401
upperback -8.78551 -2.40009 1.71688
thorax -11.8488 -1.67134 -0.982718
lowerneck 12.2662 -9.07337 -30.9886
upperneck -16.7508 -15.1664 44.5289
head 0.612428 -10.0053 24.0871
rclavicle -2.07233e-014 -1.19271e-015
rhumerus -44.6771 1.22067 -87.123
rradius 56.5918
rwrist -23.2367
rhand -20.2793 -22.5104
rfingers 7.12502
rthumb 6.07013 -52.4034
lclavicle -2.07233e-014 -1.19271e-015
lhumerus -48.3606 0.44531 90.6826
lradius 52.3168
lwrist 34.8436
lhand -27.0337 -27.4521
lfingers 7.12502
lthumb -0.452621 2.52712
rfemur -11.4433 14.6739 1.26265
rtibia 30.1021
rfoot -29.874 -11.4908
rtoes -34.436
lfemur -39.7567 7.78541 -2.2412
ltibia 43.1125
lfoot -24.8923 -4.42726
ltoes -46.6782
353
root 11.7874 14.6418 26.9994 -340.213 -73.2733 -359.725
lowerback 3.64392 -1.88816 5.30967
upperback -9.08543 -2.12989 1.53412
thorax -11.9832 -1.52745 -0.980514
lowerneck 12.522 -9.09509 -31.2047
upperneck -16.8624 -15.2789 44.4165
head 0.586973 -10.0577 24.0624
rclavicle 5.76972e-014 3.73715e-014
rhumerus -46.3549 2.41741 -88.1984
rradius 59.9013
rwrist -26.1491
rhand -21.0632 -22.5135
rfingers 7.12502
rthumb 5.31329 -52.4269
lclavicle 5.76972e-014 3.73715e-014
lhumerus -48.0492 -1.85896 92.9213
lradius 52.8484
lwrist 31.5621
lhand -26.5463 -27.6746
lfingers 7.12502
lthumb 0.0180794 2.30515
rfemur -12.1333 14.9899 -0.135471
rtibia 30.2649
rfoot -27.8471 -11.8643
rtoes -33.3547
lfemur -39.3395 8.52851 -4.02633
ltibia 42.5202
lfoot -24.841 -4.61679
ltoes -46.3484
354
root 11.7854 14.7177 27.183 -341.853 -74.7083 -357.699
lowerback 3.46816 -1.54355 4.82887
upperback -9.34252 -1.7447 1.34277
thorax -12.1288 -1.32133 -0.972904
lowerneck 12.7113 -9.13084 -31.4047
upperneck -16.8946 -15.4084 44.2936
head 0.599687 -10.1115 24.0012
rclavicle -1.16041e-014 -7.15625e-015
rhumerus -47.9491 3.65919 -89.3626
rradius 62.8901
rwrist -27.7858
rhand -21.7172 -22.6623
rfingers 7.12502
rthumb 4.68186 -52.5906
lclavicle -1.16041e-014 -7.15625e-015
lhumerus -47.8305 -4.05474 94.9444
lradius 53.835
lwrist 29.6385
lhand -25.6825 -28.1956
lfingers 7.12502
lthumb 0.852372 1.78241
rfemur -13.0864 15.2879 -1.44691
rtibia 30.8165
rfoot -25.7104 -12.2661
rtoes -31.8919
lfemur -38.6532 9.31523 -5.71288
ltibia 41.7864
lfoot -24.6954 -4.64612
ltoes -46.0299
355
root 11.782 14.7963 27.3627 -343.574 -76.37 -355.736
lowerback 3.40133 -1.13251 4.35367
upperback -9.53621 -1.25964 1.16078
thorax -12.2673 -1.06347 -0.970816
lowerneck 12.8139 -9.17519 -31.5683
upperneck -16.8482 -15.5364 44.1649
head 0.644346 -10.158 23.9059
rclavicle 6.58474e-015 -2.3059e-014
rhumerus -49.4113 4.95654 -90.6267
rradius 65.5041
rwrist -28.1246
rhand -22.1298 -22.9778
rfingers 7.12502
rthumb 4.28341 -52.9145
lclavicle 6.58474e-015 -2.3059e-014
lhumerus -47.6869 -6.08149 96.7215
lradius 55.2177
lwrist 28.9559
lhand -24.4643 -28.9352
lfingers 7.12502
lthumb 2.02897 1.03492
rfemur -14.2201 15.5324 -2.57755
rtibia 31.6478
rfoot -23.4916 -12.6782
rtoes -29.8826
lfemur -37.6939 10.1161 -7.21868
ltibia 40.939
lfoot -24.4754 -4.45108
ltoes -45.8406
356
root 11.7761 14.8769 27.5386 -345.226 -78.1922 -353.99
lowerback 3.40825 -0.677196 3.96487
upperback -9.65721 -0.698876 0.997473
thorax -12.3712 -0.772546 -1.00785
lowerneck 12.8329 -9.22139 -31.6783
upperneck -16.7377 -15.6488 44.0451
head 0.710537 -10.1937 23.7915
rclavicle 1.46107e-014 -5.56597e-015
rhumerus -50.7181 6.31571 -91.9895
rradius 67.7357
rwrist -27.2876
rhand -22.2246 -23.4379
rfingers 7.12502
rthumb 4.19189 -53.3764
lclavicle 1.46107e-014 -5.56597e-015
lhumerus -47.6036 -7.90571 98.2449
lradius 56.899
lwrist 29.0665
lhand -23.2131 -29.7765
lfingers 7.12502
lthumb 3.23733 0.178637
rfemur -15.4326 15.6999 -3.42926
rtibia 32.6241
rfoot -21.2462 -13.0669
rtoes -27.2203
lfemur -36.5047 10.8794 -8.475
ltibia 40.0133
lfoot -24.1842 -4.01498
ltoes -45.7914
357
root 11.7663 14.9593 27.711 -346.62 -80.1281 -352.62
lowerback 3.43642 -0.204864 3.70182
upperback -9.71171 -0.097429 0.868848
thorax -12.4157 -0.468916 -1.08462
lowerneck 12.7742 -9.25369 -31.7459
upperneck -16.5631 -15.7289 43.9469
head 0.792797 -10.2122 23.6813
rclavicle 8.29926e-015 0
rhumerus -51.8658 7.78244 -93.4505
rradius 69.6189
rwrist -25.5425
rhand -21.9571 -24.0081
rfingers 7.12502
rthumb 4.45018 -53.9413
lclavicle 8.29926e-015 0
lhumerus -47.5681 -9.44449 99.4455
lradius 58.7672
lwrist 29.4471
lhand -22.0186 -30.6604
lfingers 7.12502
lthumb 4.3908 -0.725921
rfemur -16.6652 15.7037 -3.94004
rtibia 33.6347
rfoot -19.1202 -13.3425
rtoes -24.2775
lfemur -35.1463 11.5788 -9.46379
ltibia 39.0436
lfoot -23.8418 -3.23009
ltoes -46.0841
358
root 11.7514 15.0427 27.8796 -347.306 -82.1114 -352.059
lowerback 3.44886 0.261856 3.62393
upperback -9.70686 0.51852 0.782765
thorax -12.3844 -0.170797 -1.22126
lowerneck 12.6584 -9.26208 -31.7683
upperneck -16.3273 -15.7673 43.8726
head 0.881634 -10.2107 23.5848
rclavicle -1.96797e-014 3.97569e-015
rhumerus -52.8701 9.32962 -94.9886
rradius 71.217
rwrist -23.2155
rhand -21.3665 -24.5691
rfingers 7.12502
rthumb 5.02048 -54.4896
lclavicle -1.96797e-014 3.97569e-015
lhumerus -47.5755 -10.6853 100.322
lradius 60.7283
lwrist 29.6429
lhand -21.1224 -31.5439
lfingers 7.12502
lthumb 5.25616 -1.6291
rfemur -17.8365 15.5207 -4.03856
rtibia 34.5986
rfoot -17.3184 -13.4019
rtoes -21.5227
lfemur -33.6746 12.1637 -10.1523
ltibia 38.0657
lfoot -23.422 -2.15974
ltoes -46.6019
359
root 11.7317 15.1263 28.0444 -346.997 -84.0812 -352.545
lowerback 3.41077 0.702185 3.69685
upperback -9.66131 1.11389 0.729399
thorax -12.2748 0.107377 -1.4023
lowerneck 12.5021 -9.23867 -31.7516
upperneck -16.0285 -15.7576 43.8147
head 0.970604 -10.1856 23.5034
rclavicle 2.98177e-016 -2.38542e-014
rhumerus -53.7482 10.9151 -96.5628
rradius 72.6042
rwrist -20.6
rhand -20.4804 -25.0251
rfingers 7.12502
rthumb 5.87606 -54.9236
lclavicle 2.98177e-016 -2.38542e-014
lhumerus -47.6346 -11.6497 100.909
lradius 62.7416
lwrist 29.4344
lhand -20.6914 -32.3911
lfingers 7.12502
lthumb 5.67227 -2.48707
rfemur -18.9119 15.1238 -3.76851
rtibia 35.4787
rfoot -16.0187 -13.0968
rtoes -19.5178
lfemur -32.1721 12.5555 -10.6061
ltibia 37.1104
lfoot -22.8802 -0.924769
ltoes -47.1424
360
root 11.708 15.209 28.2043 -344.972 -85.9821 -354.784
lowerback 3.32464 1.09697 3.87167
upperback -9.58822 1.65633 0.701023
thorax -12.1029 0.354299 -1.60248
lowerneck 12.3159 -9.18247 -31.7187
upperneck -15.6564 -15.7093 43.7729
head 1.06715 -10.1414 23.4419
rclavicle -2.03754e-015 -1.59028e-015
rhumerus -54.5453 12.5642 -98.1656
rradius 73.8742
rwrist -18.0168
rhand -19.3771 -25.2679
rfingers 7.12502
rthumb 6.94116 -55.1341
lclavicle -2.03754e-015 -1.59028e-015
lhumerus -47.7534 -12.3603 101.241
lradius 64.8177
lwrist 28.8679
lhand -20.811 -33.1599
lfingers 7.12502
lthumb 5.55686 -3.25275
rfemur -19.858 14.5076 -3.18377
rtibia 36.2711
rfoot -15.2864 -12.3414
rtoes -18.5729
lfemur -30.6884 12.7093 -10.8944
ltibia 36.2069
lfoot -22.2049 0.369446
ltoes -47.5691
361
root 11.6816 15.2895 28.3587 -338.713 -87.762 -361.282
lowerback 3.20076 1.43483 4.08592
upperback -9.49814 2.12295 0.685078
thorax -11.8886 0.564052 -1.79679
lowerneck 12.1111 -9.09404 -31.6764
upperneck -15.2098 -15.6264 43.7363
head 1.16987 -10.0789 23.3938
rclavicle -1.86858e-014 -1.03368e-014
rhumerus -55.2907 14.24 -99.7827
rradius 75.102
rwrist -15.7141
rhand -18.1494 -25.2405
rfingers 7.12502
rthumb 8.12614 -55.0642
lclavicle -1.86858e-014 -1.03368e-014
lhumerus -47.9251 -12.8289 101.354
lradius 66.9864
lwrist 28.1831
lhand -21.3935 -33.8015
lfingers 7.12502
lthumb 4.99444 -3.88036
rfemur -20.6641 13.6974 -2.35855
rtibia 37
rfoot -15.0843 -11.1362
rtoes -18.7054
lfemur -29.2659 12.5965 -11.0933
ltibia 35.3827
lfoot -21.4053 1.62916
ltoes -47.7923
362
root 11.6537 15.3664 28.5067 -305.661 -89.2738 -394.602
lowerback 3.06297 1.71335 4.28234
upperback -9.39819 2.50434 0.656888
thorax -11.6569 0.735669 -1.97963
lowerneck 11.906 -8.98501 -31.6177
upperneck -14.6937 -15.529 43.7018
head 1.28139 -10.0094 23.3497
rclavicle -4.63044e-014 -1.82882e-014
rhumerus -56.0083 15.8859 -101.404
rradius 76.3385
rwrist -13.825
rhand -16.8868 -24.8895
rfingers 7.12502
rthumb 9.34454 -54.6624
lclavicle -4.63044e-014 -1.82882e-014
lhumerus -48.1531 -13.1085 101.28
lradius 69.2958
lwrist 27.7411
lhand -22.2452 -34.3026
lfingers 7.12502
lthumb 4.17195 -4.36366
rfemur -21.3084 12.7286 -1.36925
rtibia 37.6958
rfoot -15.2868 -9.58917
rtoes -19.653
lfemur -27.9264 12.2369 -11.2814
ltibia 34.6689
lfoot -20.5299 2.81438
ltoes -47.853
